<svg xmlns="http://www.w3.org/2000/svg" viewBox="0 0 48 48"><path fill="#FFC107" d="M43.611 20.083H42V20H24v8h11.303c-1.649 4.657-6.083 8-11.303 8c-6.627 0-12-5.373-12-12s5.373-12 12-12c3.059 0 5.842 1.154 8 3.029l5.43-5.43C35.523 9.515 30.495 7 24 7C12.955 7 3.823 15.227 3.823 24s9.132 17 20.177 17c11.045 0 19.177-9.023 19.177-17c0-1.7-.256-3.36-.749-4.917z"/><path fill="#FF3D00" d="M6.306 14.691L1.395 19.59C3.26 22.314 4.22 25.445 4.22 28.747c0 1.7-.256 3.36-.749 4.917l5.43 5.43C12.477 39.485 17.505 42 24 42c11.045 0 20.177-9.023 20.177-17c0-1.7-.256-3.36-.749-4.917z"/><path fill="#4CAF50" d="M24 41c-6.627 0-12-5.373-12-12s5.373-12 12-12c3.059 0 5.842 1.154 8 3.029l5.43-5.43C35.523 9.515 30.495 7 24 7C12.955 7 3.823 15.227 3.823 24s9.132 17 20.177 17c11.045 0 19.177-9.023 19.177-17c0-1.7-.256-3.36-.749-4.917z"/><path fill="#1976D2" d="M43.611 20.083H42V20H24v8h11.303c-1.649 4.657-6.083 8-11.303 8c-6.627 0-12-5.373-12-12s5.373-12 12-12c3.059 0 5.842 1.154 8 3.029l5.43-5.43C35.523 9.515 30.495 7 24 7C12.955 7 3.823 15.227 3.823 24s9.132 17 20.177 17c11.045 0 19.177-9.023 19.177-17c0-1.7-.256-3.36-.749-4.917z"/></svg>